<svg viewBox="0 0 24 24" fill="none" xmlns="http://www.w3.org/2000/svg">
<path d="M12 10C12.5523 10 13 10.4477 13 11V14H16V11C16 10.4477 16.4477 10 17 10C17.5523 10 18 10.4477 18 11V14H19V11C19 10.4477 19.4477 10 20 10C20.5523 10 21 10.4477 21 11V15C21 18.866 17.866 22 14 22H10C6.13401 22 3 18.866 3 15V11C3 10.4477 3.44772 10 4 10C4.55228 10 5 10.4477 5 11V14H7V11C7 10.4477 7.44772 10 8 10C8.55228 10 9 10.4477 9 11V14H11V11C11 10.4477 11.4477 10 12 10Z" fill="currentColor"/>
<path d="M18 10C18 7.79086 16.2091 6 14 6H7C4.79086 6 3 7.79086 3 10" stroke="currentColor" stroke-width="2" stroke-linecap="round"/>
</svg>
