<svg viewBox="0 0 24 24" fill="none" xmlns="http://www.w3.org/2000/svg">
<path d="M12 2C11.4477 2 11 2.44772 11 3V10C11 10.5523 10.5523 11 10 11C9.44772 11 9 10.5523 9 10V5C9 4.44772 8.55228 4 8 4C7.44772 4 7 4.44772 7 5V11C7 11.5523 6.55228 12 6 12C5.44772 12 5 11.5523 5 11V7C5 6.44772 4.55228 6 4 6C3.44772 6 3 6.44772 3 7V15C3 18.866 6.13401 22 10 22H14C17.866 22 21 18.866 21 15V9C21 8.44772 20.5523 8 20 8C19.4477 8 19 8.44772 19 9V11C19 11.5523 18.5523 12 18 12C17.4477 12 17 11.5523 17 11V3C17 2.44772 16.5523 2 16 2C15.4477 2 15 2.44772 15 3V10C15 10.5523 14.5523 11 14 11C13.4477 11 13 10.5523 13 10V3C13 2.44772 12.5523 2 12 2Z" fill="currentColor"/>
</svg>
