<svg viewBox="0 0 24 24" fill="none" xmlns="http://www.w3.org/2000/svg">
<path d="M12 22H14C17.866 22 21 18.866 21 15V13C21 12.4477 20.5523 12 20 12C19.4477 12 19 12.4477 19 13V15C19 15.5523 18.5523 16 18 16C17.4477 16 17 15.5523 17 15V13C17 12.4477 16.5523 12 16 12C15.4477 12 15 12.4477 15 13V15.5C15 16.3284 14.3284 17 13.5 17C12.6716 17 12 16.3284 12 15.5V11C12 11.5523 11.5523 12 11 12C10.4477 12 10 11.5523 10 11V5C10 4.44772 9.55228 4 9 4C8.44772 4 8 4.44772 8 5V11C8 11.5523 7.55228 12 7 12C6.44772 12 6 11.5523 6 11V3C6 2.44772 5.55228 2 5 2C4.44772 2 4 2.44772 4 3V11C4 11.5523 3.55228 12 3 12C2.44772 12 2 11.5523 2 11V15C2 18.866 5.13401 22 9 22H12Z" fill="currentColor"/>
</svg>
