<svg viewBox="0 0 24 24" fill="none" xmlns="http://www.w3.org/2000/svg">
<path d="M10 22H14C17.866 22 21 18.866 21 15V13C21 12.4477 20.5523 12 20 12C19.4477 12 19 12.4477 19 13V15C19 15.5523 18.5523 16 18 16C17.4477 16 17 15.5523 17 15V13C17 12.4477 16.5523 12 16 12C15.4477 12 15 12.4477 15 13V15C15 15.5523 14.5523 16 14 16C13.4477 16 13 15.5523 13 15V13C13 12.4477 12.5523 12 12 12C11.4477 12 11 12.4477 11 13V15C11 15.5523 10.5523 16 10 16C9.44772 16 9 15.5523 9 15V13C9 12.4477 8.55228 12 8 12C7.44772 12 7 12.4477 7 13V15.5C7 16.3284 6.32843 17 5.5 17C4.67157 17 4 16.3284 4 15.5V11C4 7.13401 7.13401 4 11 4H13C14.1046 4 15 4.89543 15 6C15 7.10457 14.1046 8 13 8H11C10.4477 8 10 8.44772 10 9C10 9.55228 10.4477 10 11 10H13C15.2091 10 17 8.20914 17 6C17 3.79086 15.2091 2 13 2H11C6.02944 2 2 6.02944 2 11V15C2 18.866 5.13401 22 9 22H10Z" fill="currentColor"/>
</svg>
